<svg width="46" height="46" viewBox="0 0 46 46" fill="none" xmlns="http://www.w3.org/2000/svg">
<path d="M24.15 27.7725L10.1856 41.737L5.41309 36.9645L19.3775 23L5.41309 9.03556L10.1856 4.26306L24.15 18.2275L38.1145 4.26306L42.887 9.03556L28.9225 23L42.887 36.9645L38.1145 41.737L24.15 27.7725Z" fill="#F78F8F"/>
<path d="M38.1145 5.07611L42.0739 9.03556L28.9225 22.187L28.1095 23L28.9225 23.8131L42.0739 36.9645L38.1145 40.9239L24.9631 27.7725L24.15 26.9595L23.337 27.7725L10.1856 40.9239L6.22611 36.9645L19.3775 23.8131L20.1906 23L19.3775 22.187L6.22611 9.03556L10.1856 5.07611L23.337 18.2275L24.15 19.0406L24.9631 18.2275L38.1145 5.07611ZM38.1145 3.45001L24.15 17.4145L10.1856 3.45001L4.60001 9.03556L18.5645 23L4.60001 36.9645L10.1856 42.55L24.15 28.5856L38.1145 42.55L43.7 36.9645L29.7356 23L43.7 9.03556L38.1145 3.45001Z" fill="#C74343"/>
</svg>
