<svg width="42" height="42" viewBox="0 0 42 42" fill="none" xmlns="http://www.w3.org/2000/svg">
<path d="M21 41C32.0457 41 41 32.0457 41 21C41 9.9543 32.0457 1 21 1C9.9543 1 1 9.9543 1 21C1 32.0457 9.9543 41 21 41Z" fill="#E6F0FA"/>
<path opacity="0.15" d="M33 34C26.2289 33.9957 19.6584 31.7009 14.3569 27.4887C9.05539 23.2766 5.33479 17.3949 3.79999 10.8C1.18939 15.1297 0.31539 20.2875 1.35389 25.2355C2.39249 30.1836 5.26649 34.5547 9.39769 37.4694C13.5289 40.384 18.6107 41.6259 23.6205 40.9451C28.6303 40.2643 33.1964 37.7114 36.4 33.8L33 34Z" fill="#000064"/>
<path opacity="0.15" d="M21 10C21.5523 10 22 9.5523 22 9C22 8.4477 21.5523 8 21 8C20.4477 8 20 8.4477 20 9C20 9.5523 20.4477 10 21 10Z" fill="#000064"/>
<path opacity="0.15" d="M31 16C31.5523 16 32 15.5523 32 15C32 14.4477 31.5523 14 31 14C30.4477 14 30 14.4477 30 15C30 15.5523 30.4477 16 31 16Z" fill="#000064"/>
<path opacity="0.15" d="M13 18C13.5523 18 14 17.5523 14 17C14 16.4477 13.5523 16 13 16C12.4477 16 12 16.4477 12 17C12 17.5523 12.4477 18 13 18Z" fill="#000064"/>
<path d="M21 41C32.0457 41 41 32.0457 41 21C41 9.9543 32.0457 1 21 1C9.9543 1 1 9.9543 1 21C1 32.0457 9.9543 41 21 41Z" stroke="#2E4369" stroke-width="2" stroke-linecap="round" stroke-linejoin="round"/>
<path d="M21 10C21.5523 10 22 9.5523 22 9C22 8.4477 21.5523 8 21 8C20.4477 8 20 8.4477 20 9C20 9.5523 20.4477 10 21 10Z" stroke="#2E4369" stroke-width="2" stroke-linecap="round" stroke-linejoin="round"/>
<path d="M31 16C31.5523 16 32 15.5523 32 15C32 14.4477 31.5523 14 31 14C30.4477 14 30 14.4477 30 15C30 15.5523 30.4477 16 31 16Z" stroke="#2E4369" stroke-width="2" stroke-linecap="round" stroke-linejoin="round"/>
<path d="M13 18C13.5523 18 14 17.5523 14 17C14 16.4477 13.5523 16 13 16C12.4477 16 12 16.4477 12 17C12 17.5523 12.4477 18 13 18Z" stroke="#2E4369" stroke-width="2" stroke-linecap="round" stroke-linejoin="round"/>
</svg>
