<svg width="64" height="64" viewBox="0 0 64 64" fill="none" xmlns="http://www.w3.org/2000/svg">
<path d="M32 52C43.0457 52 52 43.0457 52 32C52 20.9543 43.0457 12 32 12C20.9543 12 12 20.9543 12 32C12 43.0457 20.9543 52 32 52Z" fill="#E6F0FA"/>
<path opacity="0.15" d="M44 45C37.2289 44.9957 30.6584 42.7009 25.3569 38.4887C20.0554 34.2766 16.3348 28.3949 14.8 21.8C12.1894 26.1297 11.3154 31.2875 12.3539 36.2355C13.3925 41.1836 16.2665 45.5547 20.3977 48.4694C24.5289 51.384 29.6107 52.6259 34.6205 51.9451C39.6303 51.2643 44.1964 48.7114 47.4 44.8L44 45Z" fill="#000064"/>
<path opacity="0.15" d="M32 21C32.5523 21 33 20.5523 33 20C33 19.4477 32.5523 19 32 19C31.4477 19 31 19.4477 31 20C31 20.5523 31.4477 21 32 21Z" fill="#000064"/>
<path opacity="0.15" d="M42 27C42.5523 27 43 26.5523 43 26C43 25.4477 42.5523 25 42 25C41.4477 25 41 25.4477 41 26C41 26.5523 41.4477 27 42 27Z" fill="#000064"/>
<path opacity="0.15" d="M24 29C24.5523 29 25 28.5523 25 28C25 27.4477 24.5523 27 24 27C23.4477 27 23 27.4477 23 28C23 28.5523 23.4477 29 24 29Z" fill="#000064"/>
<path d="M32 52C43.0457 52 52 43.0457 52 32C52 20.9543 43.0457 12 32 12C20.9543 12 12 20.9543 12 32C12 43.0457 20.9543 52 32 52Z" stroke="#2E4369" stroke-width="2" stroke-linecap="round" stroke-linejoin="round"/>
<path d="M32 21C32.5523 21 33 20.5523 33 20C33 19.4477 32.5523 19 32 19C31.4477 19 31 19.4477 31 20C31 20.5523 31.4477 21 32 21Z" stroke="#2E4369" stroke-width="2" stroke-linecap="round" stroke-linejoin="round"/>
<path d="M42 27C42.5523 27 43 26.5523 43 26C43 25.4477 42.5523 25 42 25C41.4477 25 41 25.4477 41 26C41 26.5523 41.4477 27 42 27Z" stroke="#2E4369" stroke-width="2" stroke-linecap="round" stroke-linejoin="round"/>
<path d="M24 29C24.5523 29 25 28.5523 25 28C25 27.4477 24.5523 27 24 27C23.4477 27 23 27.4477 23 28C23 28.5523 23.4477 29 24 29Z" stroke="#2E4369" stroke-width="2" stroke-linecap="round" stroke-linejoin="round"/>
</svg>
