<svg width="48" height="48" viewBox="0 0 48 48" fill="none" xmlns="http://www.w3.org/2000/svg">
<path d="M24 34.5C29.799 34.5 34.5 29.799 34.5 24C34.5 18.201 29.799 13.5 24 13.5C18.201 13.5 13.5 18.201 13.5 24C13.5 29.799 18.201 34.5 24 34.5Z" fill="#FFCC00"/>
<path opacity="0.5" d="M24 13.5C22.3509 13.497 20.7242 13.8825 19.2518 14.6252C17.7794 15.3679 16.5027 16.447 15.525 17.775C17.547 16.2585 20.0482 15.5223 22.5693 15.7014C25.0905 15.8806 27.4624 16.9632 29.2496 18.7504C31.0368 20.5376 32.1194 22.9095 32.2986 25.4307C32.4778 27.9518 31.7415 30.453 30.225 32.475C32.0143 31.1664 33.3434 29.325 34.0221 27.2146C34.7008 25.1043 34.6941 22.8333 34.0031 20.727C33.3121 18.6206 31.9722 16.787 30.1753 15.4889C28.3784 14.1907 26.2168 13.4945 24 13.5V13.5Z" fill="white"/>
<path d="M16.575 31.425L8.1 39.9M24 1.5V13.5V1.5ZM24 34.5V46.5V34.5ZM46.5 24H34.5H46.5ZM13.5 24H1.5H13.5ZM8.1 8.1L16.575 16.575L8.1 8.1ZM31.425 31.425L39.9 39.9L31.425 31.425ZM39.9 8.1L31.425 16.575L39.9 8.1Z" stroke="#2E4369" stroke-width="2" stroke-linecap="round" stroke-linejoin="round"/>
<path d="M24 34.5C29.799 34.5 34.5 29.799 34.5 24C34.5 18.201 29.799 13.5 24 13.5C18.201 13.5 13.5 18.201 13.5 24C13.5 29.799 18.201 34.5 24 34.5Z" stroke="#2E4369" stroke-width="2" stroke-linecap="round" stroke-linejoin="round"/>
</svg>
